<svg id="Layer_1" data-name="Layer 1" xmlns="http://www.w3.org/2000/svg" viewBox="0 0 1200 1200"><defs><style>.cls-1{fill:#e31f12;}.cls-2{fill:#fff;}</style></defs><path class="cls-1" d="M967.1,600c0,198.92-164.35,360.19-367.09,360.19S232.9,798.92,232.9,600,397.27,239.81,600,239.81,967.1,401.07,967.1,600"/><polygon class="cls-2" points="845.72 691.99 845.72 636.3 864.94 664.15 884.18 691.99 864.94 719.84 845.72 747.69 845.72 691.99"/><polygon class="cls-2" points="897.24 691.99 875.8 636.3 895.03 664.15 914.27 691.99 895.03 719.84 875.8 747.69 897.24 691.99"/><path class="cls-2" d="M414.4,663.39c0-6.68-3.34-10-10.09-10H393.63v36.84h10.68a9.73,9.73,0,0,0,7.15-2.94,9.62,9.62,0,0,0,2.94-7.07Zm-10.56-27.74q14.78,0,21.7,8,6.12,7,6.1,19.47v16.71a26.68,26.68,0,0,1-9.46,20.67l13.11,50.23H416.16l-10.73-43.34h-11.8v43.34h-17.7V635.65Z"/><path class="cls-2" d="M467.54,752a27.34,27.34,0,0,1-19.86-8,26.19,26.19,0,0,1-8.13-19.39v-89h17.31v88.82a9.41,9.41,0,0,0,3,7,10,10,0,0,0,7.21,2.89,9.88,9.88,0,0,0,7.16-2.89,9.51,9.51,0,0,0,2.95-7V635.65h18.44v89a25.91,25.91,0,0,1-8.25,19.47,27.59,27.59,0,0,1-19.83,7.9"/><polygon class="cls-2" points="525.02 635.56 548.49 712.96 548.49 635.56 566.19 635.56 566.19 750.73 547.18 750.73 522.84 676.98 522.84 750.73 505.15 750.73 505.15 635.56 525.02 635.56"/><polygon class="cls-2" points="595.57 635.56 619.05 712.96 619.05 635.56 636.75 635.56 636.75 750.73 617.74 750.73 593.41 676.98 593.41 750.73 575.72 750.73 575.72 635.56 595.57 635.56"/><polygon class="cls-2" points="646.28 750.72 646.28 635.55 696.63 635.55 696.63 653 663.96 653 663.96 684.41 687.84 684.41 687.84 701.87 663.96 701.87 663.96 733.28 696.63 733.28 696.63 750.72 646.28 750.72"/><path class="cls-2" d="M744.64,663.39q0-10-10.13-10H723.85v36.84h10.66a9.82,9.82,0,0,0,7.19-2.94,9.7,9.7,0,0,0,2.94-7.07Zm-10.58-27.74q14.78,0,21.72,8,6.08,7,6.08,19.47v16.71a26.73,26.73,0,0,1-9.44,20.67l13.09,50.23H746.38l-10.73-43.34h-11.8v43.34H706.17V635.65Z"/><path class="cls-2" d="M825.63,722.07q.21,12-6.38,20.58a22.87,22.87,0,0,1-12.14,8.17,34,34,0,0,1-9.84,1.28q-10.39,0-17.22-5.05a28.21,28.21,0,0,1-9-11.25,44.89,44.89,0,0,1-3.88-16.31L784,718.3q1.11,10.07,5.44,14.59a9.11,9.11,0,0,0,7.29,3.24c3.86-.13,7-2,9.26-5.61,1.18-1.79,1.79-4.32,1.79-7.64,0-4.77-2.23-9.52-6.65-14.25q-5.25-4.86-15.72-14.6-8.8-8.38-12.46-15A34.29,34.29,0,0,1,769,662.86c0-10.49,3.59-18.41,10.78-23.82,4.42-3.23,9.92-4.86,16.46-4.86a30.43,30.43,0,0,1,16.2,4.13,24.25,24.25,0,0,1,8.47,9,33.5,33.5,0,0,1,3.9,13.33l-17,3q-.75-7.06-4.13-11a8.74,8.74,0,0,0-7-2.85A8.16,8.16,0,0,0,789.3,654a16.29,16.29,0,0,0-2,8.45c0,5.26,2.31,10.63,6.91,16.07a57.29,57.29,0,0,0,7.88,7.34c4.1,3.38,6.8,5.73,8.13,7.09a59.55,59.55,0,0,1,10.11,12.66A49.77,49.77,0,0,1,823,711a31,31,0,0,1,2.61,11"/><path class="cls-2" d="M421.66,627.19a44.53,44.53,0,0,1-32.39-13.09A42.62,42.62,0,0,1,376,582.48V480.23a42.69,42.69,0,0,1,13.41-31.78,44.51,44.51,0,0,1,32.3-13.08q19.05,0,32.3,13.15a43.08,43.08,0,0,1,13.26,31.71v21.38H437.37v-22a15.54,15.54,0,0,0-4.89-11.52,16.2,16.2,0,0,0-11.74-4.78,15.92,15.92,0,0,0-11.65,4.78,15.65,15.65,0,0,0-4.81,11.52V582.18a15.43,15.43,0,0,0,4.81,11.45,16,16,0,0,0,11.65,4.71,16.3,16.3,0,0,0,11.74-4.71,15.32,15.32,0,0,0,4.89-11.45V556.32h29.85v26.16a42.5,42.5,0,0,1-13.41,31.7,44.47,44.47,0,0,1-32.15,13"/><path class="cls-2" d="M527.42,480.38l-10.66,73.85h21.33ZM512.29,581.75l-7,43h-30l32.46-187.34h39.62l32,187.34H549.1l-6.73-43Z"/><rect class="cls-2" x="590.61" y="437.47" width="28.8" height="187.33"/><path class="cls-2" d="M695.34,482.62q0-16.29-16.46-16.3H661.51v60h17.37a15.9,15.9,0,0,0,11.66-4.8,15.67,15.67,0,0,0,4.8-11.5Zm-17.22-45.16q24.07,0,35.35,13,9.9,11.37,9.9,31.71v27.2q0,19.89-15.39,33.65l21.34,81.78H698.17L680.7,554.23H661.51V624.8H632.72V437.46Z"/><path class="cls-2" d="M797.51,479.32a15.36,15.36,0,0,0-4.8-11.43,16,16,0,0,0-11.66-4.71,16.32,16.32,0,0,0-11.74,4.71,15.35,15.35,0,0,0-4.87,11.43V581.89a15.37,15.37,0,0,0,4.87,11.44,16.27,16.27,0,0,0,11.74,4.7,16,16,0,0,0,11.66-4.7,15.38,15.38,0,0,0,4.8-11.44Zm-15.69-44.25a44.53,44.53,0,0,1,32.39,13.15,43,43,0,0,1,13.31,31.7V582.19A42.78,42.78,0,0,1,814.12,614a46.33,46.33,0,0,1-64.62-.07,43.12,43.12,0,0,1-13.25-31.7V479.92a42.71,42.71,0,0,1,13.41-31.76,44.47,44.47,0,0,1,32.16-13.09"/></svg>