<?xml version="1.0" encoding="utf-8"?>
<!-- Generator: Adobe Illustrator 13.0.0, SVG Export Plug-In . SVG Version: 6.00 Build 14948)  -->
<!DOCTYPE svg PUBLIC "-//W3C//DTD SVG 1.1//EN" "http://www.w3.org/Graphics/SVG/1.1/DTD/svg11.dtd">
<svg version="1.1" id="Layer_1" xmlns="http://www.w3.org/2000/svg" xmlns:xlink="http://www.w3.org/1999/xlink" x="0px" y="0px"
	 width="721.311px" height="1949.932px" viewBox="0 0 721.311 1949.932" enable-background="new 0 0 721.311 1949.932"
	 xml:space="preserve">
<path fill="none" stroke="#D7C6BE" stroke-width="7" d="M717.019,1880.441c-36.59-2.46-73.191,5.125-109.779,3.041
	c-36.596-2.086-75.852-16.692-93.105-49.866c-9.104-21.868-12.886-45.591-11.001-69.213V547.682h213.313v-61.438H503.319V3.5
	h-58.599c5.936,124.097-37.094,245.571-119.828,338.27c-7.584,8.53-15.733,16.683-24.085,24.458
	c-59.483,55.893-133.001,94.619-212.737,112.063c-20.103,4.552-42.289,3.79-62.201,9.101c-26.353,6.827-19.718,12.514-19.718,42.845
	c0,51.199,0,102.204,0,153.4c-0.757,204.653-1.637,409.239-2.652,613.77c0,49.865,0,100.297,2.849,150.361
	c2.826,66.128,15.607,131.458,37.919,193.781c44.261,114.812,132.013,207.54,244.225,258.056
	c132.725,58.786,284.414,49.483,429.275,39.245L717.019,1880.441z"/>
</svg>
