<?xml version="1.0" encoding="utf-8"?>
<!-- Generator: Adobe Illustrator 13.0.0, SVG Export Plug-In . SVG Version: 6.00 Build 14948)  -->
<!DOCTYPE svg PUBLIC "-//W3C//DTD SVG 1.1//EN" "http://www.w3.org/Graphics/SVG/1.1/DTD/svg11.dtd">
<svg version="1.1" id="Layer_1" xmlns="http://www.w3.org/2000/svg" xmlns:xlink="http://www.w3.org/1999/xlink" x="0px" y="0px"
	 width="139.25px" height="150px" viewBox="0 0 139.25 150" enable-background="new 0 0 139.25 150" xml:space="preserve">
<g>
	<g opacity="0.29">
		<g opacity="0.29">
			<path opacity="0.29" fill="#FAFAFA" enable-background="new    " d="M82.102,67.213c0,4.955-4.018,8.973-8.972,8.973
				c-4.955,0-8.972-4.018-8.972-8.973c0-4.954,4.017-8.972,8.972-8.972C78.084,58.241,82.102,62.259,82.102,67.213z"/>
		</g>
		<g opacity="0.29">
			<path opacity="0.29" fill="#FAFAFA" enable-background="new    " d="M98.761,50.553c0,4.954-4.018,8.971-8.971,8.971
				c-4.955,0-8.97-4.017-8.97-8.971c0-4.954,4.015-8.972,8.97-8.972C94.744,41.581,98.761,45.599,98.761,50.553z"/>
		</g>
		<g opacity="0.29">
			<path opacity="0.29" fill="#FAFAFA" enable-background="new    " d="M99.188,83.874c0,4.955-4.017,8.974-8.972,8.974
				c-4.952,0-8.969-4.02-8.969-8.974s4.017-8.973,8.969-8.973C95.171,74.9,99.188,78.919,99.188,83.874z"/>
		</g>
		<g opacity="0.29">
			<path opacity="0.29" fill="#FAFAFA" enable-background="new    " d="M65.44,84.302c0,4.95-4.017,8.97-8.972,8.97
				c-4.952,0-8.969-4.02-8.969-8.97c0-4.958,4.017-8.973,8.969-8.973C61.423,75.329,65.44,79.344,65.44,84.302z"/>
		</g>
		<g opacity="0.29">
			<path opacity="0.29" fill="#FAFAFA" enable-background="new    " d="M65.013,50.553c0,4.954-4.017,8.971-8.971,8.971
				c-4.952,0-8.969-4.017-8.969-8.971c0-4.954,4.017-8.972,8.969-8.972C60.997,41.581,65.013,45.599,65.013,50.553z"/>
		</g>
		<g opacity="0.29">
			<path opacity="0.29" fill="#FAFAFA" enable-background="new    " d="M78.6,34.009c0,3.185-2.582,5.765-5.767,5.765
				c-3.184,0-5.769-2.581-5.769-5.765c0-3.187,2.584-5.769,5.769-5.769C76.018,28.24,78.6,30.823,78.6,34.009z"/>
		</g>
		<g opacity="0.29">
			<path opacity="0.29" fill="#FAFAFA" enable-background="new    " d="M112.701,67.496c0,3.187-2.581,5.767-5.766,5.767
				c-3.188,0-5.768-2.58-5.768-5.767c0-3.185,2.58-5.767,5.768-5.767C110.12,61.729,112.701,64.311,112.701,67.496z"/>
		</g>
		<g opacity="0.29">
			<path opacity="0.29" fill="#FAFAFA" enable-background="new    " d="M112.598,101.014c0,3.186-2.58,5.764-5.766,5.764
				c-3.188,0-5.768-2.578-5.768-5.764s2.582-5.766,5.768-5.766S112.598,97.829,112.598,101.014z"/>
		</g>
		<g opacity="0.29">
			<path opacity="0.29" fill="#FAFAFA" enable-background="new    " d="M79.643,101.079c0,3.181-2.582,5.762-5.767,5.762
				s-5.768-2.581-5.768-5.762c0-3.188,2.583-5.769,5.768-5.769S79.643,97.893,79.643,101.079z"/>
		</g>
		<g opacity="0.29">
			<path opacity="0.29" fill="#FAFAFA" enable-background="new    " d="M44.872,101.143c0,3.186-2.581,5.766-5.767,5.766
				c-3.185,0-5.767-2.58-5.767-5.766c0-3.188,2.583-5.77,5.767-5.77C42.292,95.373,44.872,97.953,44.872,101.143z"/>
		</g>
		<g opacity="0.29">
			<path opacity="0.29" fill="#FAFAFA" enable-background="new    " d="M45.282,67.562c0,3.187-2.581,5.767-5.766,5.767
				s-5.767-2.581-5.767-5.767c0-3.185,2.582-5.767,5.767-5.767S45.282,64.377,45.282,67.562z"/>
		</g>
		<g opacity="0.29">
			<path opacity="0.29" fill="#FAFAFA" enable-background="new    " d="M45.609,34.2c0,3.185-2.581,5.767-5.768,5.767
				c-3.184,0-5.765-2.582-5.765-5.767c0-3.185,2.581-5.765,5.765-5.765C43.028,28.435,45.609,31.016,45.609,34.2z"/>
		</g>
		<g opacity="0.29">
			<path opacity="0.29" fill="#FAFAFA" enable-background="new    " d="M112.25,33.775c0,3.185-2.581,5.765-5.766,5.765
				c-3.188,0-5.77-2.581-5.77-5.765c0-3.187,2.582-5.769,5.77-5.769C109.67,28.006,112.25,30.589,112.25,33.775z"/>
		</g>
		<g opacity="0.29">
			<path opacity="0.29" fill="#FAFAFA" enable-background="new    " d="M92.586,17.444c0,1.77-1.436,3.204-3.204,3.204
				c-1.768,0-3.204-1.435-3.204-3.204c0-1.768,1.438-3.205,3.204-3.205C91.152,14.24,92.586,15.677,92.586,17.444z"/>
		</g>
		<g opacity="0.29">
			<path opacity="0.29" fill="#FAFAFA" enable-background="new    " d="M59.784,17.364c0,1.77-1.433,3.204-3.205,3.204
				c-1.768,0-3.202-1.434-3.202-3.204c0-1.771,1.434-3.204,3.202-3.204C58.352,14.16,59.784,15.595,59.784,17.364z"/>
		</g>
		<g opacity="0.29">
			<path opacity="0.29" fill="#FAFAFA" enable-background="new    " d="M25.727,50.664c0,1.77-1.432,3.204-3.204,3.204
				c-1.768,0-3.202-1.434-3.202-3.204s1.435-3.205,3.202-3.205C24.294,47.459,25.727,48.894,25.727,50.664z"/>
		</g>
		<g opacity="0.29">
			<path opacity="0.29" fill="#FAFAFA" enable-background="new    " d="M56.484,114.742c1.77,0,3.205,1.438,3.205,3.205
				c0,1.77-1.435,3.203-3.205,3.203s-3.204-1.436-3.204-3.203C53.28,116.182,54.714,114.742,56.484,114.742z"/>
		</g>
		<g opacity="0.29">
			<path opacity="0.29" fill="#FAFAFA" enable-background="new    " d="M89.879,114.466c1.77,0,3.204,1.438,3.204,3.204
				c0,1.77-1.435,3.204-3.204,3.204s-3.205-1.435-3.205-3.204C86.675,115.904,88.109,114.466,89.879,114.466z"/>
		</g>
		<g opacity="0.29">
			<path opacity="0.29" fill="#FAFAFA" enable-background="new    " d="M123.878,81.352c1.772,0,3.205,1.438,3.205,3.205
				c0,1.771-1.433,3.203-3.205,3.203c-1.771,0-3.202-1.435-3.202-3.203C120.676,82.79,122.107,81.352,123.878,81.352z"/>
		</g>
		<g opacity="0.29">
			<path opacity="0.29" fill="#FAFAFA" enable-background="new    " d="M124.095,47.405c1.771,0,3.204,1.436,3.204,3.204
				c0,1.77-1.434,3.205-3.204,3.205c-1.77,0-3.204-1.435-3.204-3.205C120.891,48.841,122.325,47.405,124.095,47.405z"/>
		</g>
		<g opacity="0.29">
			<path opacity="0.29" fill="#FAFAFA" enable-background="new    " d="M20.174,82.377c1.119-1.373,3.136-1.579,4.508-0.46
				s1.577,3.134,0.458,4.506c-1.117,1.372-3.134,1.579-4.506,0.46C19.262,85.77,19.058,83.749,20.174,82.377z"/>
		</g>
	</g>
	<path fill="#FAFAFA" d="M81.368,67.213c0,4.955-4.017,8.973-8.972,8.973c-4.954,0-8.969-4.018-8.969-8.973
		c0-4.954,4.015-8.972,8.969-8.972C77.352,58.241,81.368,62.259,81.368,67.213z"/>
	<path fill="#FAFAFA" d="M98.027,50.553c0,4.954-4.017,8.971-8.971,8.971c-4.953,0-8.971-4.017-8.971-8.971
		c0-4.954,4.018-8.972,8.971-8.972C94.011,41.581,98.027,45.599,98.027,50.553z"/>
	<path fill="#FAFAFA" d="M98.455,83.874c0,4.955-4.016,8.974-8.973,8.974c-4.951,0-8.969-4.02-8.969-8.974s4.018-8.973,8.969-8.973
		C94.439,74.9,98.455,78.919,98.455,83.874z"/>
	<path fill="#FAFAFA" d="M64.708,84.302c0,4.95-4.017,8.97-8.971,8.97c-4.953,0-8.97-4.02-8.97-8.97c0-4.958,4.017-8.973,8.97-8.973
		C60.69,75.329,64.708,79.344,64.708,84.302z"/>
	<path fill="#FAFAFA" d="M64.281,50.553c0,4.954-4.017,8.971-8.971,8.971c-4.953,0-8.97-4.017-8.97-8.971
		c0-4.954,4.017-8.972,8.97-8.972C60.264,41.581,64.281,45.599,64.281,50.553z"/>
	<path fill="#FAFAFA" d="M77.868,34.009c0,3.185-2.581,5.765-5.767,5.765s-5.767-2.581-5.767-5.765c0-3.187,2.581-5.769,5.767-5.769
		S77.868,30.823,77.868,34.009z"/>
	<path fill="#FAFAFA" d="M111.97,67.496c0,3.187-2.583,5.767-5.767,5.767c-3.188,0-5.768-2.58-5.768-5.767
		c0-3.185,2.58-5.767,5.768-5.767C109.387,61.729,111.97,64.311,111.97,67.496z"/>
	<path fill="#FAFAFA" d="M111.864,101.014c0,3.186-2.58,5.764-5.765,5.764c-3.188,0-5.768-2.578-5.768-5.764
		s2.581-5.766,5.768-5.766C109.284,95.248,111.864,97.829,111.864,101.014z"/>
	<path fill="#FAFAFA" d="M78.91,101.079c0,3.181-2.582,5.762-5.768,5.762c-3.185,0-5.767-2.581-5.767-5.762
		c0-3.188,2.582-5.769,5.767-5.769C76.328,95.311,78.91,97.893,78.91,101.079z"/>
	<path fill="#FAFAFA" d="M44.139,101.143c0,3.186-2.581,5.766-5.767,5.766c-3.185,0-5.765-2.58-5.765-5.766
		c0-3.188,2.581-5.77,5.765-5.77C41.559,95.373,44.139,97.953,44.139,101.143z"/>
	<path fill="#FAFAFA" d="M44.551,67.562c0,3.187-2.583,5.767-5.768,5.767c-3.185,0-5.767-2.581-5.767-5.767
		c0-3.185,2.583-5.767,5.767-5.767C41.968,61.795,44.551,64.377,44.551,67.562z"/>
	<path fill="#FAFAFA" d="M44.876,34.2c0,3.185-2.581,5.767-5.765,5.767s-5.767-2.582-5.767-5.767c0-3.185,2.583-5.765,5.767-5.765
		S44.876,31.016,44.876,34.2z"/>
	<path fill="#FAFAFA" d="M111.518,33.775c0,3.185-2.58,5.765-5.766,5.765s-5.77-2.581-5.77-5.765c0-3.187,2.584-5.769,5.77-5.769
		S111.518,30.589,111.518,33.775z"/>
	<path fill="#FAFAFA" d="M91.854,17.444c0,1.77-1.435,3.204-3.205,3.204c-1.77,0-3.201-1.435-3.201-3.204
		c0-1.768,1.432-3.205,3.201-3.205C90.419,14.239,91.854,15.677,91.854,17.444z"/>
	<path fill="#FAFAFA" d="M59.052,17.364c0,1.77-1.435,3.204-3.203,3.204c-1.77,0-3.205-1.434-3.205-3.204
		c0-1.771,1.435-3.204,3.205-3.204C57.617,14.16,59.052,15.595,59.052,17.364z"/>
	<path fill="#FAFAFA" d="M24.996,50.664c0,1.77-1.436,3.204-3.204,3.204c-1.77,0-3.204-1.434-3.204-3.204s1.435-3.205,3.204-3.205
		C23.56,47.459,24.996,48.894,24.996,50.664z"/>
	<path fill="#FAFAFA" d="M55.751,114.742c1.771,0,3.205,1.438,3.205,3.205c0,1.77-1.433,3.203-3.205,3.203
		c-1.77,0-3.202-1.436-3.202-3.203C52.549,116.182,53.982,114.742,55.751,114.742z"/>
	<path fill="#FAFAFA" d="M89.146,114.466c1.77,0,3.203,1.438,3.203,3.204c0,1.77-1.434,3.204-3.203,3.204
		c-1.771,0-3.203-1.435-3.203-3.204C85.943,115.904,87.377,114.466,89.146,114.466z"/>
	<path fill="#FAFAFA" d="M123.146,81.352c1.771,0,3.205,1.438,3.205,3.205c0,1.771-1.434,3.203-3.205,3.203
		c-1.771,0-3.203-1.435-3.203-3.203C119.943,82.79,121.376,81.352,123.146,81.352z"/>
	<path fill="#FAFAFA" d="M123.361,47.405c1.771,0,3.205,1.436,3.205,3.204c0,1.77-1.435,3.205-3.205,3.205
		c-1.77,0-3.203-1.435-3.203-3.205C120.158,48.841,121.592,47.405,123.361,47.405z"/>
	<path fill="#FAFAFA" d="M19.441,82.377c1.119-1.373,3.138-1.579,4.51-0.46c1.37,1.119,1.575,3.134,0.458,4.506
		c-1.119,1.372-3.136,1.579-4.508,0.46C18.529,85.77,18.324,83.749,19.441,82.377z"/>
</g>
</svg>
