<?xml version="1.0" encoding="utf-8"?>
<!-- Generator: Adobe Illustrator 13.0.0, SVG Export Plug-In . SVG Version: 6.00 Build 14948)  -->
<!DOCTYPE svg PUBLIC "-//W3C//DTD SVG 1.1//EN" "http://www.w3.org/Graphics/SVG/1.1/DTD/svg11.dtd">
<svg version="1.1" xmlns="http://www.w3.org/2000/svg" xmlns:xlink="http://www.w3.org/1999/xlink" x="0px" y="0px"
	 width="1593.379px" height="609.281px" viewBox="0 0 1593.379 609.281" enable-background="new 0 0 1593.379 609.281"
	 xml:space="preserve">
<g id="a">
	<path fill="#D7C6BE" d="M1547.215,499.165c-15.399,0-19.73-13.826-19.73-41.86V323.853c0-119.235-72.27-168.583-178.069-168.583
		c-86.791,0-147.043,37.069-167.208,90.131c-15.565,40.974,12.417,85.678,55.86,91.487
		c-16.965-69.096,45.809-102.253,106.218-102.253c71.461,0,105.008,32.757,105.008,95.931v18.974
		c-190.295-2.765-307.956,22.104-307.956,125.165c0,74.618,58.826,108.966,128.313,108.966c93.582,0,165.043-54.096,188.695-159.131
		h3.548c-11.443,120.8,1.191,158.705,56.078,158.705h0.661c30.922-0.175,55.4-26.444,55.4-57.392v-31.435
		C1566.954,497.574,1556.676,499.165,1547.215,499.165z M1302.433,506.67c-49.748,0-84.495-19.748-84.495-57.252
		c0-54.888,80.539-81.739,231.355-78.966C1448.902,463.626,1380.207,506.67,1302.433,506.67z"/>
</g>
<g id="i-2nd">
	<g>
		<path fill="#D7C6BE" d="M1009.667,246.461v324.557c43.383-0.005,78.548-35.175,78.548-78.557V167.904
			C1044.833,167.909,1009.667,203.079,1009.667,246.461z"/>
		<path fill="#D7C6BE" d="M1048.945,30.209c-25.895-0.015-46.898,20.966-46.912,46.86c-0.015,25.896,20.966,46.899,46.86,46.913
			c25.895,0.015,46.898-20.966,46.913-46.86c0-0.009,0-0.018,0-0.026C1095.807,51.211,1074.83,30.224,1048.945,30.209z"/>
	</g>
</g>
<g id="v">
	<path fill="#D7C6BE" d="M846.363,242.47c-63.191,157.392-83.156,227.026-95.904,291.835h-2.383
		c-12.678-64.47-32.521-133.4-95.2-289.313C634.139,198.436,589,167.93,538.815,167.904l137.304,353.991
		c15.387,39.614,59.974,59.255,99.588,43.868c20.151-7.827,36.081-23.771,43.891-43.929L956.52,167.922
		C908.03,167.97,864.434,197.474,846.363,242.47z"/>
</g>
<g id="i-1st">
	<g>
		<path fill="#D7C6BE" d="M368.441,141.826l155.957-51.521l-32.357-60.096C432.398,65.392,400.319,105.982,368.441,141.826z"/>
		<path fill="#D7C6BE" d="M407.111,246.461v324.557l0,0c43.385,0,78.557-35.171,78.557-78.557l0,0V167.904
			C442.282,167.904,407.111,203.075,407.111,246.461L407.111,246.461z"/>
	</g>
</g>
<g id="l-small">
	<path fill="#D7C6BE" d="M233.128,179.461L233.128,179.461c-24.373,12.522-39.696,37.624-39.695,65.026l62.174-30.044V340.53
		c0,43.616,35.358,78.975,78.974,78.975l0,0V167.904h-53.713C264.263,167.913,247.898,171.874,233.128,179.461z"/>
</g>
<g id="capital-ls">
	<path fill="#D7C6BE" d="M255.606,492.053H120.824V167.904c-43.598,0.02-78.931,35.368-78.931,78.966v245.217
		c-0.014,10.56,2.097,21.014,6.209,30.739c0.869,2,1.809,3.939,2.817,5.853c0.182,0.348,0.321,0.713,0.504,1.052
		c13.809,25.472,40.461,41.333,69.435,41.322h213.714c0.019-43.611-35.319-78.981-78.931-79
		C255.63,492.053,255.618,492.053,255.606,492.053z"/>
	<path fill="#D7C6BE" d="M255.606,492.053H120.824V167.904c-43.598,0.02-78.931,35.368-78.931,78.966v245.217
		c-0.014,10.56,2.098,21.014,6.209,30.739c0.869,2,1.809,3.939,2.817,5.853c0.183,0.348,0.321,0.713,0.504,1.052
		c13.81,25.472,40.461,41.333,69.435,41.322h213.714c0.019-43.611-35.319-78.981-78.931-79
		C255.63,492.053,255.618,492.053,255.606,492.053z"/>
</g>
</svg>
