<?xml version="1.0" encoding="utf-8"?>
<!-- Generator: Adobe Illustrator 13.0.0, SVG Export Plug-In . SVG Version: 6.00 Build 14948)  -->
<!DOCTYPE svg PUBLIC "-//W3C//DTD SVG 1.1//EN" "http://www.w3.org/Graphics/SVG/1.1/DTD/svg11.dtd">
<svg version="1.1" id="Layer_1" xmlns="http://www.w3.org/2000/svg" xmlns:xlink="http://www.w3.org/1999/xlink" x="0px" y="0px"
	 width="258.702px" height="354.197px" viewBox="-750.075 -751.075 258.702 354.197"
	 enable-background="new -750.075 -751.075 258.702 354.197" xml:space="preserve">
<path fill="#D7C6BE" d="M-614.655-415.91c-6.358-0.428-12.718,0.89-19.076,0.528c-6.359-0.362-13.18-2.9-16.178-8.665
	c-1.582-3.8-2.239-7.922-1.912-12.026v-211.421h37.066v-10.676h-37.033v-83.883h-10.182c1.031,21.564-6.446,42.671-20.822,58.779
	c-1.318,1.482-2.734,2.899-4.185,4.25c-10.336,9.712-23.111,16.441-36.966,19.472c-3.493,0.791-7.348,0.659-10.808,1.582
	c-4.579,1.186-3.426,2.174-3.426,7.445c0,8.896,0,17.759,0,26.655c-0.132,35.561-0.285,71.11-0.461,106.65
	c0,8.665,0,17.428,0.495,26.127c0.491,11.491,2.712,22.843,6.589,33.672c7.691,19.95,22.939,36.063,42.437,44.841
	c23.063,10.215,49.421,8.598,74.592,6.819L-614.655-415.91z"/>
<path fill="#D7C6BE" d="M-627.194-730.588c6.358,0.428,12.719-0.89,19.076-0.528c6.359,0.362,13.18,2.9,16.177,8.665
	c1.583,3.801,2.239,7.922,1.912,12.027v211.421l-37.066,0v10.676h37.033v83.883h10.182c-1.031-21.564,6.446-42.671,20.821-58.779
	c1.318-1.482,2.735-2.899,4.185-4.25c10.337-9.712,23.111-16.441,36.967-19.472c3.492-0.791,7.348-0.659,10.808-1.582
	c4.579-1.186,3.426-2.174,3.426-7.445c0-8.896,0-17.759,0-26.655c0.132-35.561,0.285-71.11,0.461-106.65
	c0-8.665,0-17.428-0.494-26.127c-0.491-11.491-2.712-22.843-6.589-33.672c-7.691-19.951-22.939-36.063-42.436-44.841
	c-23.063-10.215-49.421-8.598-74.593-6.819L-627.194-730.588z"/>
</svg>
