<svg id="Layer_1" data-name="Layer 1" xmlns="http://www.w3.org/2000/svg" viewBox="0 0 1200 1200"><defs><style>.cls-1{fill:#379f36;}.cls-2{fill:#333;}</style></defs><path class="cls-1" d="M666.31,545.28a84.22,84.22,0,0,0-139.3,0l-38.17-20.81a84.42,84.42,0,0,0,0-65.66L527,438a84.23,84.23,0,0,0,139.3,0l38.29,20.89a84.49,84.49,0,0,0,0,65.52Zm-124.37,8.13a67.16,67.16,0,0,1,109.44,0l-54.71,29.84ZM664.28,592.8a67.62,67.62,0,1,1-135.23,0,66.93,66.93,0,0,1,4.82-24.68l62.8,34.23,62.79-34.23a67.13,67.13,0,0,1,4.82,24.68M478.72,491.64a67.13,67.13,0,0,1-4.82,24.68l-45.26-24.68L473.9,467a67.08,67.08,0,0,1,4.82,24.67m-67.61,67.62a67.62,67.62,0,1,1,54.73-107l-72.26,39.38L465.84,531a67.47,67.47,0,0,1-54.73,28.23M651.38,429.87a67.13,67.13,0,0,1-109.44,0L596.67,400ZM529.05,390.49a67.62,67.62,0,1,1,130.41,24.67l-62.79-34.22-62.8,34.22a66.88,66.88,0,0,1-4.82-24.67m253.16,16.93a84.13,84.13,0,0,0-69.54,36.76L674.4,423.32a84.38,84.38,0,1,0-155.48,0l-38.16,20.81a84.38,84.38,0,1,0,0,95L518.92,560a84.38,84.38,0,1,0,155.48,0l38.27-20.88a84.2,84.2,0,1,0,69.54-131.68"/><polygon class="cls-2" points="441.68 861.51 414.3 861.51 392.64 827.07 370.95 861.51 343.73 861.51 378.98 805.38 345.76 752.6 373.14 752.6 392.66 783.6 412.11 752.6 439.49 752.6 406.33 805.31 441.68 861.51"/><path class="cls-2" d="M529.48,751.81c10.1,0,18.72,2.51,25.8,7.52A38.29,38.29,0,0,1,570,779.51l-22.84,8.14a16.85,16.85,0,0,0-6-9.61c-3.09-2.47-7-3.69-11.82-3.69-5.62,0-10,1.72-13.07,5.16A18.2,18.2,0,0,0,511.63,792v29.58a19.5,19.5,0,0,0,4.61,13.06q4.62,5.4,13.24,5.4a18.17,18.17,0,0,0,13.22-5.47,17.47,17.47,0,0,0,5.55-12.84V821H526V801h46v21.76A37,37,0,0,1,559.67,851q-12.36,11.41-30.19,11.42-20.67,0-31.39-11.57t-10.72-31V794.22q0-18,10.95-30.19t31.16-12.22"/><path class="cls-2" d="M626,833.34v-2.5H611.24q-9.39,0-9.39,5.78a6.91,6.91,0,0,0,.63,2.83,7.35,7.35,0,0,0,3.21,2.89,13.44,13.44,0,0,0,6.8,1.49,16.54,16.54,0,0,0,9.55-2.66,8.86,8.86,0,0,0,3.91-7.83m22.22,28.17H626v-7.2l-.46-.15q-6.91,8.13-19.09,8.14-11.91,0-18.94-5.95t-7.05-17.84a22.15,22.15,0,0,1,7.52-17.14q7.5-6.79,20.49-6.8H626v-2.51q0-9.39-13-9.39-11.43,0-18.33,6.1L583.85,793.6q11.42-10.32,31.46-10.33,32.88,0,32.86,26.45Z"/><path class="cls-2" d="M695.55,803.62a11.24,11.24,0,0,0-8.3,3.12c-2.08,2.09-3.13,5-3.13,8.77v46.16H661.75V784.05h21.92v8.77l.45.15q6.74-9.71,17.21-9.7a28.22,28.22,0,0,1,16.44,4.85L710,807.68a27.28,27.28,0,0,0-14.4-4.06"/><path class="cls-2" d="M765,833.34v-2.5H750.24c-6.27,0-9.39,1.93-9.39,5.78a6.91,6.91,0,0,0,.63,2.83,7.35,7.35,0,0,0,3.21,2.89,13.42,13.42,0,0,0,6.8,1.49,16.54,16.54,0,0,0,9.55-2.66,8.86,8.86,0,0,0,3.91-7.83m22.22,28.17H765v-7.2l-.48-.15q-6.88,8.13-19.09,8.14-11.88,0-18.92-5.95t-7.05-17.84a22.17,22.17,0,0,1,7.51-17.14q7.51-6.79,20.5-6.8H765v-2.51q0-9.39-13-9.39c-7.62,0-13.71,2-18.32,6.1L722.85,793.6q11.42-10.32,31.45-10.33,32.87,0,32.87,26.45Z"/><path class="cls-2" d="M843,829.36a59.08,59.08,0,0,0,.3-6.35,56.61,56.61,0,0,0-.3-6.25,36.24,36.24,0,0,0-1.27-5.88,9,9,0,0,0-3.36-5,10,10,0,0,0-6.18-1.8,11.14,11.14,0,0,0-6.41,1.72,9,9,0,0,0-3.51,4.92,29.57,29.57,0,0,0-1.34,5.88,55.49,55.49,0,0,0-.31,6.4,57.36,57.36,0,0,0,.31,6.57,26.18,26.18,0,0,0,1.41,5.8,9.22,9.22,0,0,0,3.51,4.77,11.12,11.12,0,0,0,6.34,1.65,10.2,10.2,0,0,0,6-1.72,9.2,9.2,0,0,0,3.44-4.86,31,31,0,0,0,1.34-5.86m22.69-45.3v75.42q0,17.37-10.42,25.89t-25.88,8.54q-17.24,0-28.8-10l11-15.48a32,32,0,0,0,17.66,5.47,15.42,15.42,0,0,0,10.18-3.36,11.23,11.23,0,0,0,4.08-9.16v-6.1l-.32-.16a20.33,20.33,0,0,1-7.34,5.24,21.58,21.58,0,0,1-8.79,2.12q-29.25,0-29.24-37.88,0-41.15,29.09-41.14,10.35,0,16.13,6.25l.3-.15v-5.47Z"/><path class="cls-2" d="M923.69,814.24a12.63,12.63,0,0,0-3.82-8.12,11.1,11.1,0,0,0-15.19.07,13.71,13.71,0,0,0-4,8Zm24.11,14.41H899.92c.41,4.81,1.71,8.27,3.9,10.41s5.21,3.21,9.09,3.21q9.52,0,17.53-7.2l13.76,15.34q-13.16,12-31.92,12a42.54,42.54,0,0,1-12.84-1.88,35.06,35.06,0,0,1-11.26-6.1q-5.32-4.23-8.36-12.28A54,54,0,0,1,876.76,823q0-20.34,10.33-30a35.2,35.2,0,0,1,25-9.7q17.85,0,26.76,10.79t8.92,29.12Z"/><path class="cls-2" d="M337,823.48q0,17.24-12.3,28T294.6,862.3q-18,0-30.21-11.2t-12.19-29V752.6h23.93v67.76q0,8.91,5.24,14.23a17.82,17.82,0,0,0,13.23,5.33q8.14,0,13.22-4.7t5.08-13.46V752.6H337Z"/></svg>